<?xml version="1.0" encoding="UTF-8" standalone="no"?>
<svg
   width="270"
   height="180"
   viewBox="0 0 71.437498 47.625"
   version="1.1"
   id="svg1"
   xml:space="preserve"
   sodipodi:docname="kitoolbox-preview-default_2.svg"
   inkscape:version="1.3.2 (091e20e, 2023-11-25, custom)"
   xmlns:inkscape="http://www.inkscape.org/namespaces/inkscape"
   xmlns:sodipodi="http://sodipodi.sourceforge.net/DTD/sodipodi-0.dtd"
   xmlns="http://www.w3.org/2000/svg"
   xmlns:svg="http://www.w3.org/2000/svg"><defs
     id="defs2" /><sodipodi:namedview
     id="defs1"
     pagecolor="#ffffff"
     bordercolor="#000000"
     borderopacity="0.25"
     inkscape:showpageshadow="2"
     inkscape:pageopacity="0.0"
     inkscape:pagecheckerboard="0"
     inkscape:deskcolor="#d1d1d1"
     inkscape:zoom="8.0407407"
     inkscape:cx="135"
     inkscape:cy="90.041456"
     inkscape:window-width="1520"
     inkscape:window-height="492"
     inkscape:window-x="4594"
     inkscape:window-y="325"
     inkscape:window-maximized="0"
     inkscape:current-layer="svg1" /><g
     inkscape:label="Ebene 1"
     id="layer1"><rect
       style="fill:#d0d7e3;stroke-width:0.264583;fill-opacity:1"
       id="rect1"
       width="71.4375"
       height="47.625"
       x="0"
       y="0" /><g
       id="g1"
       transform="matrix(0.49609375,0,0,0.49609375,19.84375,7.9375)"><path
         fill="none"
         d="M 0,0 H 64 V 64 H 0 Z"
         id="path1" /><g
         fill="#28497c"
         id="g3"><path
           d="m 54.47,35.21 c -2.81,-1.07 -5.85,-0.06 -7.6,2.25 l -3.51,-1.33 c 0.4,-2.28 0.09,-4.58 -0.8,-6.62 l 3.46,-2.54 a 5.882,5.882 0 0 0 3.54,1.17 c 2.51,0 4.87,-1.58 5.79,-4.13 1.19,-3.28 -0.44,-6.92 -3.64,-8.13 -0.71,-0.27 -1.43,-0.4 -2.15,-0.4 -2.51,0 -4.87,1.58 -5.79,4.13 a 6.384,6.384 0 0 0 -0.17,3.81 l -3.48,2.55 a 11.05,11.05 0 0 0 -3.81,-2.45 c -5.09,-1.94 -10.68,0.22 -13.36,4.84 l -2.58,-0.98 c 0.31,-3.43 -1.63,-6.77 -4.93,-8.03 -0.87,-0.33 -1.77,-0.49 -2.65,-0.49 -3.1,0 -6.01,1.95 -7.15,5.1 C 4.18,28 6.19,32.5 10.13,34 c 0.87,0.33 1.77,0.49 2.65,0.49 2.36,0 4.61,-1.14 6.05,-3.07 l 2.68,1.02 c -0.63,4.2 1.11,8.41 4.43,10.88 l -1.46,3.01 c -0.67,-0.14 -1.36,-0.2 -2.07,-0.1 -3.38,0.46 -5.75,3.65 -5.3,7.11 0.45,3.46 3.56,5.9 6.94,5.43 3.38,-0.46 5.75,-3.65 5.3,-7.11 -0.15,-1.15 -0.62,-2.17 -1.27,-3.03 l 1.69,-3.48 c 4.67,1.2 9.55,-0.87 12.07,-4.99 l 3.62,1.38 c -0.04,2.82 1.61,5.49 4.34,6.53 3.47,1.32 7.32,-0.49 8.61,-4.04 1.29,-3.55 -0.48,-7.5 -3.95,-8.82 z m -8.06,-14.6 c 0.49,-1.34 1.75,-2.24 3.15,-2.24 0.4,0 0.79,0.07 1.17,0.22 0.84,0.32 1.51,0.96 1.88,1.79 0.37,0.83 0.41,1.77 0.1,2.63 -0.49,1.34 -1.75,2.24 -3.15,2.24 -0.4,0 -0.79,-0.07 -1.17,-0.22 -1.73,-0.66 -2.62,-2.64 -1.98,-4.42 z M 12.79,31.6 c -0.57,0 -1.13,-0.1 -1.67,-0.31 -2.48,-0.94 -3.75,-3.78 -2.83,-6.33 0.7,-1.92 2.51,-3.21 4.5,-3.21 0.57,0 1.13,0.1 1.67,0.31 2.48,0.94 3.75,3.78 2.83,6.33 -0.7,1.92 -2.51,3.21 -4.5,3.21 z"
           id="path2" /><path
           d="m 25.74,17.4 c 3.19,1.21 6.73,-0.45 7.92,-3.72 1.18,-3.27 -0.44,-6.9 -3.63,-8.11 -3.19,-1.21 -6.73,0.45 -7.92,3.72 -1.18,3.27 0.44,6.9 3.63,8.11 z"
           id="path3" /></g></g></g></svg>
